<svg width="40" height="40" viewBox="0 0 40 40" fill="none" xmlns="http://www.w3.org/2000/svg">
<path d="M22.914 0C12.1627 0 5.39392 3.48736 5.84956 6.46213C5.98099 7.31425 6.34243 10.7227 6.80026 13.6318C1.53198 15.6778 -0.213891 18.9965 0.0204981 21.7018C0.298698 24.9022 3.17708 28.3282 9.50121 28.9197C13.1112 29.257 17.4551 27.2767 20.27 23.8923C19.9292 23.3118 19.7889 22.6352 19.8708 21.9671C19.9527 21.2989 20.2521 20.6762 20.7229 20.1951C21.1937 19.7139 21.8098 19.4011 22.476 19.3048C23.1423 19.2084 23.8217 19.334 24.4095 19.6621C24.9973 19.9902 25.4608 20.5026 25.7286 21.1202C25.9963 21.7378 26.0534 22.4264 25.891 23.0797C25.7287 23.733 25.3558 24.3147 24.8301 24.7351C24.3043 25.1556 23.6549 25.3913 22.9819 25.406C19.6325 29.728 14.5307 32.3369 9.69836 32.0324C9.81007 32.7422 9.8517 34.1069 9.90865 34.4705C10.1058 35.7388 15.0499 39.4212 22.914 39.4299C30.778 39.4212 35.7221 35.7388 35.9215 34.4727C36.1142 33.2088 39.5161 9.48071 39.9784 6.46213C40.434 3.48736 33.663 0 22.914 0ZM3.07413 21.4345C2.95365 20.026 4.07083 18.1531 7.28875 16.749L8.69727 25.6733C5.18363 24.9876 3.22528 23.1563 3.07413 21.4345ZM22.914 11.0053C15.0499 11.0009 9.47054 8.08313 9.47054 6.99224C9.46616 5.91011 15.0499 3.07115 22.914 3.07553C30.778 3.07115 36.3618 5.91011 36.3574 6.99224C36.3574 8.08313 30.778 11.0009 22.914 11.0053Z" fill="white"/>
</svg>
